<svg width="188" height="54" viewBox="0 0 188 54" fill="none" xmlns="http://www.w3.org/2000/svg">
<path d="M163.406 41.1774C161.94 39.7984 160.42 38.4702 159.051 37.0065C158.666 36.5976 158.567 35.7968 158.567 35.1605C158.533 29.7073 158.548 24.254 158.548 18.8008V16.6935H144.818C144.334 17.8379 144.706 18.4524 145.938 18.9314C147.178 19.444 148.351 20.107 149.429 20.9056C151.016 22.0427 151.74 23.6081 151.703 25.6452C151.616 30.7839 151.674 35.9226 151.674 41.5064L147.227 38.1944C143.76 40.8847 139.863 42.0653 135.588 41.9177C133.086 41.8331 130.725 41.0564 128.971 39.2564C125.202 35.4097 125.284 31.5387 129.409 27.8661C133.333 24.3726 139.57 24.4089 144.435 27.6242C145.038 28.021 145.614 28.454 146.47 29.0758C146.47 27.3992 146.565 25.9573 146.446 24.5347C146.306 22.8097 144.951 22.321 143.506 22.0282C140.666 21.4548 137.99 22.2532 135.339 23.0879C133.715 23.5984 132.131 24.2347 130.357 24.8782L128.952 21.9484C132.435 20.7387 135.772 19.621 139.074 18.4064C139.623 18.2032 140.02 17.5839 140.487 17.1581L140.168 16.6742H120.373V18.629C120.373 26.8403 120.152 35.0564 120.445 43.2581C120.658 49.1806 116.122 52.5653 111.293 53.6855C107.722 54.5129 104.55 53.6855 101.806 51.3363C99.7718 49.5968 99.796 49.0185 101.565 47.0927C102.213 46.3839 102.876 45.6871 103.5 45.0339C103.921 46.4274 104.112 47.8306 104.746 48.9919C106.004 51.2927 108.755 52.379 111.172 51.825C113.291 51.3411 115.021 49.0645 115.229 46.4758C115.273 45.9266 115.26 45.3726 115.263 44.8234V16.6573H100.674C100.253 17.8669 100.652 18.4524 101.799 18.9242C103.143 19.5016 104.409 20.2444 105.569 21.1355C106.955 22.1734 107.608 23.6177 107.584 25.4395C107.516 30.6435 107.56 35.8427 107.56 41.475L103.081 38.204C99.6774 40.8871 95.7726 42.0387 91.4952 41.9226C88.9911 41.8524 86.6807 41.0831 84.8903 39.3145C81.0194 35.4895 81.2057 31.3863 85.3742 27.796C89.879 23.9105 97.1105 24.5419 101.99 28.9355C102.109 29.0114 102.235 29.0762 102.365 29.129C102.365 27.8008 102.365 26.5331 102.365 25.2581C102.351 23.3226 101.349 22.05 99.4016 22.0573C97.1315 22.0864 94.8668 22.2886 92.6274 22.6621C91.3186 22.8677 90.0605 23.446 88.8048 23.925C86.1024 24.9605 86.1097 24.9798 84.9581 21.9242C88.2702 20.7653 91.5605 19.5435 94.9016 18.4839C95.9419 18.1548 96.3919 17.7871 95.9807 16.5484C91.9331 16.5484 87.8371 16.4685 83.746 16.5895C82.2339 16.6355 81.3726 16.1564 80.7847 14.8137C80.3323 13.7782 79.6984 12.8202 78.9581 11.4919H81.4548C115.155 11.4919 148.853 11.4758 182.55 11.4435C184.471 11.4435 185.654 11.9274 186.339 13.7226C186.675 14.6129 187.253 15.4161 187.865 16.5048H163.498V23.7097C164.168 23.296 164.707 22.9839 165.22 22.6403C168.07 20.654 170.833 18.3774 174.544 18.3992C180.259 18.4331 184.882 23.4194 183.269 29.4314C182.192 33.4403 179.881 37.1202 178.05 40.9113C177.907 41.2065 177.121 41.4218 176.724 41.3202C175.149 40.9137 174.404 39.3847 175.019 37.6645C175.817 35.4339 176.819 33.2758 177.624 31.0452C177.918 30.1154 178.093 29.152 178.144 28.1782C178.548 23.7411 174.194 22.1782 171.556 23.6274C168.919 25.0766 166.546 26.8911 164.131 28.6524C163.773 28.9137 163.725 29.7435 163.715 30.3145C163.655 33.9266 163.645 37.5411 163.621 41.1532C163.549 41.1344 163.472 41.143 163.406 41.1774V41.1774ZM136.379 38.2742C139.297 38.2452 143.168 37.0887 145.299 35.746C146.993 34.6742 147.07 32.9153 145.326 31.9064C143.966 31.1177 142.519 30.329 141.01 29.971C138.552 29.4048 135.997 28.9161 133.635 30.5056C132.29 31.4081 131.013 33.8927 131.436 35.2137C131.954 36.8419 133.154 37.846 134.85 38.1556C135.356 38.231 135.867 38.2665 136.379 38.2621V38.2742ZM93.4186 38.2742C95.7315 38.1629 98.6516 37.1879 101.378 35.6129C102.588 34.9185 102.944 33.1306 101.949 32.4048C98.8548 30.15 95.4 28.9185 91.546 29.7435C88.7347 30.3508 86.9492 32.7508 87.2879 35.0347C87.5807 37.0548 89.6032 38.2935 93.4186 38.2645V38.2742Z" fill="white"/>
<path d="M46.9113 25.0549C43.6476 21.3484 39.4669 21.7984 38.0298 26.0033C37.6621 27.0871 37.9911 28.6041 38.4508 29.7387C40.1903 34.0355 43.2097 37.3912 46.7589 40.292C45.15 42.3678 44.9976 42.3968 43.0718 40.8339C39.5081 37.9476 36.4669 34.6089 34.5702 30.3895C33.2032 27.3533 32.7508 24.242 35.0347 21.3774C38.4508 17.0904 44.1895 17.7484 47.6685 21.4694C48.0363 21.8662 48.3581 22.3041 48.6363 22.6379C50.071 21.5637 51.5395 20.6662 52.7298 19.4928C53.3298 18.8952 53.4073 17.7774 53.7992 16.6742H21.9895C21.5831 17.8839 21.871 18.5153 23.1121 19.067C24.5933 19.7714 25.9667 20.683 27.1911 21.7742C27.8323 22.321 28.4419 23.3154 28.4589 24.1186C28.5653 29.7895 28.5145 35.4629 28.5145 41.4533L24.1089 38.1895C20.7387 40.8508 16.9016 41.9855 12.675 41.9347C8.20887 41.8791 4.06936 38.9807 3.29032 34.6936C3.00484 33.1283 3.82016 31.0524 4.76855 29.6323C7.5 25.5533 12.4935 24.3895 17.3347 25.9234C19.3766 26.5694 21.271 27.6774 23.3032 28.6089C23.3032 27.2831 23.5935 25.7057 23.1992 24.3073C22.9573 23.4194 21.7476 22.3089 20.8597 22.1952C18.9073 21.9477 16.9274 22.0245 15 22.4226C12.3919 22.9645 9.87097 23.9226 7.15887 24.7476L5.90806 21.9533C9.32177 20.7436 12.5613 19.517 15.8589 18.4694C16.9403 18.1283 17.2645 17.7049 16.8823 16.5629C12.8565 16.5629 8.81855 16.4879 4.78548 16.6016C3.29274 16.6452 2.40242 16.2097 1.81694 14.85C1.36452 13.8024 0.725806 12.8226 0 11.5065H2.39032C23.4653 11.5065 44.5427 11.5307 65.6153 11.4605C67.3887 11.4605 68.4944 11.8815 69.1645 13.5315C69.5516 14.4823 70.1444 15.3484 70.771 16.4831H58.6911C58.1008 18.7379 58.1008 18.7379 60.196 19.1613C62.2911 19.5847 64.6476 22.3452 65.2403 24.7766C66.5492 30.1524 64.1516 34.1323 60.5661 37.7057C60.165 38.0832 59.7442 38.4393 59.3056 38.7726C56.129 41.3444 55.8387 41.3154 52.9621 38.2258C54.929 36.5008 56.9565 34.8387 58.8436 33.0315C60.6073 31.3379 61.5557 29.175 61.8919 26.7412C62.279 23.9565 59.0734 21.7041 56.1774 23.1121C54.1621 24.0799 52.4782 25.8097 50.7847 27.3484C49.904 28.1492 49.3331 29.2839 48.5371 30.3557L44.9661 27.6291C45.6121 26.7726 46.2315 25.9573 46.9113 25.0549ZM13.8435 38.2258L14.0032 38.7097C16.6645 37.771 19.3766 36.9702 21.9556 35.85C24.0145 34.9573 24 32.8041 22.0185 31.7033C20.8109 30.9972 19.5226 30.4391 18.1815 30.0412C15.7234 29.371 13.2169 28.8992 10.8048 30.3363C9.93352 30.8567 9.25191 31.6426 8.86003 32.5788C8.46814 33.5149 8.38662 34.552 8.62742 35.5379C9.1379 37.4274 10.6452 38.0129 12.3823 38.2258C12.8689 38.2561 13.3569 38.2561 13.8435 38.2258Z" fill="#00D1FF"/>
<path d="M76.6451 40.8145C75.358 39.6048 73.9839 38.4556 72.825 37.1347C72.3774 36.6266 72.2153 35.7145 72.2129 34.9863C72.1693 27.2758 72.2129 19.5629 72.1693 11.8524C72.1925 9.66247 72.0574 7.47371 71.7653 5.30322C71.5064 3.60967 70.7976 1.96693 70.2169 0.0290222C70.7661 0.174184 71.4459 0.220151 71.9879 0.512893C75.2129 2.28628 76.8943 5.21128 76.9718 8.7387C77.2137 19.4274 77.1968 30.1234 77.2839 40.8145H76.6451Z" fill="white"/>
<path d="M121.263 3.12823L117.968 7.04758L114.765 3.19113L118.246 0L121.263 3.12823Z" fill="white"/>
</svg>
